<svg version="1.1" viewBox="0.0 0.0 933.1837270341207 673.0734908136483" fill="none" stroke="none" stroke-linecap="square" stroke-miterlimit="10" xmlns:xlink="http://www.w3.org/1999/xlink" xmlns="http://www.w3.org/2000/svg"><clipPath id="p.0"><path d="m0 0l933.1837 0l0 673.0735l-933.1837 0l0 -673.0735z" clip-rule="nonzero"/></clipPath><g clip-path="url(#p.0)"><path fill="#000000" fill-opacity="0.0" d="m0 0l933.1837 0l0 673.0735l-933.1837 0z" fill-rule="evenodd"/><path fill="#000000" fill-opacity="0.0" d="m263.2126 198.00232l463.74805 -0.28346252l0 172.91338l-463.74805 0.28347778z" fill-rule="evenodd"/><path fill="#000000" d="m308.1501 290.0436l-6.8125 23.37918q-1.421875 4.9539795 -1.421875 7.0008545q0 2.84375 1.859375 4.295746q1.859375 1.4519958 8.40625 1.572998l-0.796875 2.2817383l-40.9375 0.025024414l0.671875 -2.2816772q5.203125 -0.06567383 7.359375 -1.0201111q2.171875 -0.9700928 3.59375 -3.1428223q1.046875 -1.4225159 3.15625 -8.720673l15.515625 -53.25949q1.609375 -5.313492 1.609375 -7.594742q0 -2.296875 -2.046875 -3.8737488q-2.03125 -1.576889 -7.421875 -1.6985931l0.6875 -2.2816772l33.203125 -0.02029419q13.671875 -0.008361816 19.671875 3.456726q9.28125 5.4318237 9.28125 16.322449q0 10.5 -9.25 18.521301q-9.25 8.005646 -24.890625 8.015198q-4.703125 0.0028686523 -11.4375 -0.9773865zm1.234375 -4.7663574q4.015625 0.49752808 6.671875 0.49591064q8.53125 -0.005218506 13.421875 -7.789459q4.890625 -7.7998657 4.890625 -16.28424q0 -5.75 -3.15625 -8.919952q-3.15625 -3.1855621 -8.71875 -3.1821594q-1.171875 7.171631E-4 -2.90625 0.12677002l-10.203125 35.55313z" fill-rule="nonzero"/><path fill="#000000" d="m379.81363 278.4842l-5.890625 20.550476l1.796875 -0.0010986328q7.109375 -0.004333496 10.359375 -1.8813171q3.265625 -1.8770142 5.53125 -6.6440125l1.453125 -8.8500977E-4l-5.9375 20.628632l-1.375 8.239746E-4q0.359375 -2.0627136 0.359375 -3.3595886q0 -2.140625 -1.28125 -3.4992065q-1.265625 -1.3742371 -3.296875 -1.9667358q-1.328125 -0.38983154 -5.5 -0.38726807l-3.046875 0.0018615723l-5.078125 17.784363q-0.671875 2.3441467 -0.671875 3.4691467q0 0.90625 0.859375 1.4526062q1.25 0.78048706 4.734375 0.77835083q6.671875 -0.0040893555 12.5625 -2.8358154q5.90625 -2.847351 10.59375 -8.584595l1.609375 -9.765625E-4l-5.515625 14.534637l-45.3125 0.027679443l0.46875 -1.4533997q3.984375 -0.0024414062 5.8125 -1.5035706q1.84375 -1.5011292 3.328125 -6.627014l9.96875 -34.099854q0.8125 -2.8598938 0.8125 -4.500519q0 -1.484375 -1.0625 -2.2805786q-1.046875 -0.79623413 -4.796875 -1.0751953l0.4375 -1.4377747l42.21875 -0.025817871l-3.390625 13.23645l-1.40625 8.8500977E-4q-0.15625 -3.9061584 -1.21875 -5.4992676q-1.640625 -2.498993 -4.359375 -3.653595q-2.703125 -1.154602 -8.796875 -1.1508789l-4.96875 0.0030517578zm51.640625 -2.9534302l16.5625 35.30237l7.46875 -25.629578q0.578125 -2.1097107 0.578125 -3.7503357q0 -1.953125 -1.234375 -3.1242676q-1.21875 -1.1711121 -4.234375 -1.372406l0.4375 -1.4377747l16.796875 -0.010253906l-0.390625 1.4377441q-3.203125 0.20507812 -5.296875 1.8157349q-2.09375 1.5950317 -3.53125 6.4396667l-12.9375 43.882904l-1.484375 9.1552734E-4l-21.25 -45.158905l-10.265625 35.20941q-0.515625 1.8284302 -0.515625 3.2815552q0 2.109375 1.390625 3.374176q1.390625 1.2647705 4.4375 1.2629089l-0.359375 1.4533386l-17.265625 0.010559082l0.34375 -1.4533386q2.234375 -0.001373291 3.171875 -0.39257812q1.640625 -0.6260071 3.203125 -2.3925781q1.5625 -1.782196 2.546875 -5.1421814l11.203125 -38.49124q-2.0625 -2.2955933 -3.46875 -2.9509888q-1.40625 -0.6710205 -4.21875 -0.7161865l0.421875 -1.4377441l17.890625 -0.010925293zm42.070312 -0.025726318l42.62497 -0.026062012l-4.03125 14.252472l-1.40625 8.544922E-4q0.078125 -1.1250305 0.078125 -1.9844055q0 -4.0625 -2.390625 -6.3110657q-2.375 -2.2485352 -8.03125 -2.5575867l-11.7968445 39.897858q-0.984375 3.3131104 -0.984375 4.9224854q0 1.484375 1.203125 2.358612q1.21875 0.8742676 4.9375 0.9501343l-0.359375 1.4533386l-26.28125 0.016052246l0.46875 -1.4533997q4.015625 -0.0024719238 5.84375 -1.5035706q1.84375 -1.5011292 3.375 -6.73645l11.796875 -39.897827q-6.09375 0.20684814 -10.203125 2.6781006q-4.09375 2.4556274 -7.5 8.192078l-1.515625 9.460449E-4l4.171875 -14.252563z" fill-rule="nonzero"/><path fill="#ffffff" d="m538.173 263.528l0 28.296875l1.984375 -0.0012207031q4.5625 -0.0027770996 7.453125 -1.3795471q2.90625 -1.37677 4.90625 -4.6279907q2.0 -3.2512207 2.609375 -8.782867l1.78125 -0.0010681152l0 34.578125l-1.78125 0.0010986328q-0.953125 -9.796295 -5.25 -12.918671q-4.296875 -3.1223755 -9.71875 -3.1190796l-1.984375 0.0012207031l0 21.078125q0 5.28125 0.578125 6.6090393q0.59375 1.3121338 2.28125 2.3110962q1.703125 0.9833374 4.609375 0.9815674l2.28125 -0.0014038086l0 1.875l-36.0 0.022003174l0 -1.875l2.28125 -0.0014038086q3.0 -0.0018310547 4.828125 -1.0810547q1.3125 -0.703949 2.03125 -2.4387512q0.546875 -1.2190857 0.546875 -6.3909607l0 -45.296875q0 -5.28125 -0.5625 -6.5934143q-0.546875 -1.3277893 -2.25 -2.3111267q-1.703125 -0.9989624 -4.59375 -0.9971924l-2.28125 0.0014038086l0 -1.875l58.09375 -0.03552246l0 19.75l-2.09375 0.0012817383q-0.703125 -6.9526978 -3.625 -10.294647q-2.921875 -3.357605 -8.453125 -4.7292175q-3.046875 -0.7637634 -11.28125 -0.758728l-6.390625 0.00390625z" fill-rule="nonzero"/><path fill="#ffffff" d="m602.40344 326.9419l0 1.453125l-27.6875 0.016906738l0 -1.453125l1.75 -0.0010681152q2.3125 -0.0014038086 3.71875 -0.8147583q1.015625 -0.54748535 1.5625 -1.875946q0.421875 -0.93777466 0.421875 -4.9221497l0 -34.84375q0 -4.0625 -0.4375 -5.0778503q-0.421875 -1.0153809 -1.734375 -1.7802124q-1.296875 -0.76483154 -3.53125 -0.76345825l-1.75 0.0010681152l0 -1.4375l27.6875 -0.016906738l0 1.4375l-1.75 0.0010681152q-2.3125 0.0014038086 -3.71875 0.8303833q-1.015625 0.54748535 -1.59375 1.8759766q-0.4375 0.93777466 -0.4375 4.9221497l0 34.84375q0 4.0625 0.453125 5.0778503q0.453125 1.0153503 1.75 1.7801819q1.3125 0.74920654 3.546875 0.74783325l1.75 -0.0010681152zm23.085938 -22.70163l0 14.84375q0 4.296875 0.53125 5.405945q0.53125 1.1090393 1.859375 1.7801208q1.328125 0.655426 4.953125 0.65319824l0 1.453125l-27.109375 0.016571045l0 -1.453125q3.671875 -0.0022277832 4.984375 -0.67489624q1.3125 -0.688324 1.828125 -1.7823792q0.53125 -1.0940857 0.53125 -5.3909607l0 -34.375q0 -4.296875 -0.53125 -5.4059143q-0.515625 -1.1246948 -1.84375 -1.7801208q-1.328125 -0.67108154 -4.96875 -0.66885376l0 -1.4375l24.609375 -0.015045166q9.609375 -0.005859375 14.0625 1.319519q4.453125 1.3254089 7.265625 4.901825q2.8125 3.560791 2.8125 8.373291q0 5.859375 -4.21875 9.690063q-2.6875 2.423523 -7.53125 3.6296082l12.734375 17.929718q2.5 3.4672241 3.546875 4.3259583q1.609375 1.2177734 3.71875 1.3258667l0 1.453125l-16.6875 0.010192871l-17.0625 -24.130188l-3.484375 0.002105713zm0 -25.984375l0 23.203125l2.234375 -0.0013427734q5.421875 -0.003326416 8.109375 -0.98934937q2.703125 -1.001648 4.25 -3.596344q1.546875 -2.610321 1.546875 -6.782196q0 -6.0625 -2.84375 -8.9513855q-2.828125 -2.888916 -9.109375 -2.8850708l-4.1875 0.0025634766zm58.320312 0.16748047l0 21.5625l1.0625 -6.4086914E-4q5.03125 -0.0030822754 7.296875 -3.1607056q2.265625 -3.1732788 2.890625 -9.34552l1.484375 -9.1552734E-4l0 27.734375l-1.484375 9.1552734E-4q-0.46875 -4.5309753 -1.96875 -7.420685q-1.5 -2.8897095 -3.5 -3.8884888q-1.984375 -0.9987793 -5.78125 -0.99645996l0 14.921875q0 4.375 0.375 5.3591614q0.375 0.96850586 1.390625 1.5928955q1.015625 0.62438965 3.28125 0.62298584l3.15625 -0.0019226074q7.421875 -0.004547119 11.890625 -3.4447632q4.484375 -3.4402466 6.4375 -10.472687l1.4375 -8.8500977E-4l-2.375 16.845215l-45.78125 0.02798462l0 -1.453125l1.75 -0.0010681152q2.3125 -0.0014343262 3.71875 -0.8147888q1.015625 -0.54748535 1.5625 -1.875946q0.421875 -0.93777466 0.421875 -4.9221497l0 -34.84375q0 -3.59375 -0.1875 -4.421753q-0.390625 -1.3591309 -1.453125 -2.10849q-1.484375 -1.0928345 -4.0625 -1.0912781l-1.75 0.0010681152l0 -1.4375l44.328125 -0.027069092l0 15.65625l-1.484375 8.8500977E-4q-1.125 -5.733673 -3.1875 -8.232422q-2.046875 -2.4987488 -5.796875 -3.668335q-2.1875 -0.7017822 -8.203125 -0.6980896l-5.46875 0.003326416z" fill-rule="nonzero"/></g></svg>